<svg width="1080" height="1080" viewBox="0 0 1080 1080" fill="none" xmlns="http://www.w3.org/2000/svg">
<rect width="1080" height="1080" fill="white"/>
<rect x="35" y="35" width="1010" height="1010" rx="116" fill="#00B6B9"/>
<path d="M160.559 820.286L632.704 604.571L634.86 690.857L537.844 734L542.156 820.286L442.984 774.986L255.419 861.271L160.559 820.286Z" fill="#00A1A3"/>
<path d="M634.86 604.571L915.129 731.843L824.581 774.986L729.72 731.843L634.86 688.7V604.571Z" fill="#00797B"/>
<path d="M540 734L729.72 818.129L632.704 861.271L540 818.129V734Z" fill="#00797B"/>
<path d="M824.581 774.986L919.441 818.129L824.581 861.271V774.986Z" fill="#00A1A3"/>
<path fill-rule="evenodd" clip-rule="evenodd" d="M634.86 218.737L160.559 432.368L255.419 475.526L445.14 389.211L637.016 475.526L727.565 434.526L540 348.211L634.86 305.053L824.581 391.368L731.876 434.526L826.737 475.526L917.285 434.526V348.211L634.86 218.737ZM634.86 307.211V389.211L729.72 432.368L820.269 391.368L634.86 307.211Z" fill="white"/>
<path d="M160.559 436.684V540.263L253.263 581.263V477.684L160.559 436.684Z" fill="#00797B"/>
<path d="M445.14 393.526V497.105L632.704 581.263V477.684L445.14 393.526Z" fill="#00797B"/>
<path d="M634.86 307.211V389.211L729.72 432.368L820.269 391.368L634.86 307.211Z" fill="#00797B"/>
<path d="M729.72 436.684V540.263L822.425 581.263V477.684L729.72 436.684Z" fill="#00797B"/>
<path d="M445.14 391.368L257.575 475.526L251.108 583.421L442.984 497.105L445.14 391.368Z" fill="#00A1A3"/>
<path d="M731.876 432.368L634.86 477.684V581.263L727.565 540.263L731.876 432.368Z" fill="#00A1A3"/>
<path d="M917.285 436.684L824.581 477.684V581.263L917.285 540.263V436.684Z" fill="#00A1A3"/>
</svg>
